<svg xmlns="http://www.w3.org/2000/svg" width="32" height="32" viewBox="5 4 50 50" fill="none">
  <path fill="#E27927" d="m50.323 29.942-4.446-2.1 4.34 2.816-.113 1.14-3.982-3.567c-.022.092.05.117.097.171.385.457.922.902 1.344 1.343.837.873 1.643 1.782 2.46 2.675.025.09-.144.932-.19 1.062-.019.053-.025.116-.095.124l-3.617-4.983 3.432 5.73.006.124-.408 1.182-1.816-4.121-1.8-3.598c.923 3.496 1.77 7.015 2.442 10.573-.01.117-.565 1.08-.672 1.235-.03.043.008.09-.108.063-.239-2.77-.668-5.52-1.09-8.265l-.376-1.993c.167 1.639.413 3.27.586 4.91.21 2.003.342 4.014.525 6.02l-1.013 1.429c-.04-.258.043-.509.05-.755.104-3.33-.06-6.799-.246-10.116a106.51 106.51 0 0 1-.098-2.003c-.002-.058.038-.182-.048-.17.01.61-.013 1.223-.003 1.834.05 2.72 0 5.437-.093 8.159-.191 1.235-.062 2.636-.25 3.855-.022.143-.429.571-.558.712-.236.257-.499.5-.758.732.77-4.857 1.242-9.767 1.517-14.679l-.051-.515a125.084 125.084 0 0 1-2.396 16.097l-1.636 1.295-.07-.07c1.713-5.58 2.99-11.295 3.948-17.06l-.042-.212c-1.259 6.17-3.067 12.213-5.203 18.126-.102.196-.86.581-1.1.708-.27.144-.57.297-.848.423-.133.06-.33.161-.472.162a127.262 127.262 0 0 0 6.255-15.39c.52-1.569 1.06-3.219 1.49-4.813.017-.065.128-.32.025-.341a119.946 119.946 0 0 1-14.76 22.35 16.23 16.23 0 0 1-4.103-.097l2.518-2.368c5.246-5.196 10.043-10.84 14.283-16.89l1.67-2.507c-.795.918-1.523 1.914-2.298 2.857A118.318 118.318 0 0 1 23.605 49.67c-.777-.14-1.586-.402-2.335-.675a20.578 20.578 0 0 1-2.369-1.051c9.494-5.435 18.291-12.101 25.998-19.86l-4.012 3.147c-7.707 5.83-16.042 10.843-24.867 14.81l-.194-.002c-1.497-1.108-2.814-2.436-4.009-3.86l.118-.076c10.505-3.086 20.623-7.4 30.212-12.641l3.144-1.816c-1.622.141-3.241.337-4.862.489a687.122 687.122 0 0 1-33.255 2.296c-.112-1.944-.03-3.913.37-5.817l9.037.492c9.47.651 18.935 1.408 28.368 2.442l-.136-.082a326.726 326.726 0 0 0-27.261-5.188L8.564 21.1c-.049-.067.343-.955.41-1.109.623-1.436 1.453-2.776 2.354-4.049l.062-.013c11.453 2.712 22.649 6.491 33.345 11.368l.213.055L42 25.586c-8.914-5.072-18.312-9.327-28.082-12.5-.025-.094.039-.093.082-.136 1.26-1.268 2.886-2.3 4.416-3.21l.095-.004a132.994 132.994 0 0 1 22.452 14.2l3.692 2.978c-7.038-7.085-15.043-13.175-23.554-18.393 1.2-.44 2.44-.814 3.704-1.036.174-.03.995-.175 1.082-.137a124.117 124.117 0 0 1 17.056 17.1c.59.72 1.138 1.488 1.76 2.174L43.18 24.31c-3.6-5.132-7.552-10.02-11.864-14.57-.805-.849-1.681-1.652-2.47-2.514-.019-.022-.111-.085-.048-.098 1.275.018 2.546.134 3.799.355l.113.082c4.731 6.157 8.972 12.708 12.484 19.642.087.012.047-.108.037-.159-.123-.641-.42-1.478-.61-2.125-1.523-5.138-3.4-10.176-5.535-15.084l.023-.072c.335.227.706.399 1.048.614.208.13.868.53.958.703 1.56 4.757 2.91 9.594 3.884 14.51.085.012.052-.115.048-.168-.014-.203-.077-.461-.112-.67-.522-3.104-1.216-6.26-1.972-9.313-.306-1.236-.709-2.463-.992-3.7-.005-.026-.014-.078.023-.07.48.427 1.04.789 1.445 1.29.83 4.403 1.496 8.845 1.854 13.317l.05-.465c-.125-1.708-.199-3.421-.344-5.128-.196-2.306-.523-4.593-.78-6.89-.005-.045-.025-.165.048-.097l1.025 1.223c.035.93.06 1.857.097 2.786.101 2.636.182 5.32.051 7.961-.008.17.004.342 0 .512l.097-.464c.181-3.373.306-6.752.295-10.136.178.256.642.721.743.99.06.162.045.378.04.55-.042 1.425-.244 3.062-.393 4.493-.166 1.59-.418 3.174-.586 4.764l.822-4.527.6-4.382c.045-.068.051-.106.116-.03.065.075.537.894.542.95-.617 2.999-1.394 5.96-2.178 8.917l1.606-3.207 1.571-3.534.37.877v.198l-3.107 5.13 3.323-4.569.22.611.065.404-3.608 3.846 3.74-3.224c.1-.015.058.013.077.067.095.26.096.616.194.888l-4.45 2.758 4.74-.488.048 1.123-4.349-.464 4.35 1.123v1.1l-.005-.004Z"/>
</svg>
