<svg xmlns="http://www.w3.org/2000/svg" width="169" height="58" fill="none"><path fill="#1A1A1A" fill-opacity=".95" d="M68.696 40.384c-1.557 0-2.976-.267-4.256-.8-1.259-.533-2.261-1.323-3.008-2.368-.747-1.067-1.141-2.39-1.184-3.968h4.32c.043 1.045.416 1.92 1.12 2.624.725.704 1.717 1.056 2.976 1.056 1.088 0 1.952-.256 2.592-.768.64-.512.96-1.205.96-2.08 0-.448-.075-.843-.224-1.184-.128-.341-.384-.661-.768-.96-.384-.299-.928-.587-1.632-.864-.683-.299-1.59-.63-2.72-.992-1.472-.49-2.656-1.056-3.552-1.696-.896-.64-1.547-1.355-1.952-2.144a6.051 6.051 0 0 1-.576-2.624c0-1.408.33-2.581.992-3.52.683-.96 1.59-1.675 2.72-2.144 1.152-.49 2.421-.736 3.808-.736 1.408 0 2.677.245 3.808.736 1.152.49 2.08 1.216 2.784 2.176.704.96 1.067 2.144 1.088 3.552h-4.384c-.021-.81-.341-1.515-.96-2.112-.597-.597-1.43-.896-2.496-.896-.853 0-1.579.224-2.176.672-.597.448-.896 1.11-.896 1.984 0 .64.235 1.184.704 1.632.49.448 1.141.843 1.952 1.184.832.32 1.75.661 2.752 1.024.555.192 1.173.437 1.856.736a8.603 8.603 0 0 1 2.016 1.216c.64.49 1.163 1.12 1.568 1.888.427.747.64 1.675.64 2.784 0 1.365-.352 2.539-1.056 3.52-.683.981-1.621 1.739-2.816 2.272-1.173.533-2.507.8-4 .8ZM79.284 40V17.6h4.064v8.384c.554-.747 1.29-1.301 2.208-1.664a7.387 7.387 0 0 1 2.816-.576c1.834 0 3.338.597 4.512 1.792 1.173 1.173 1.76 2.88 1.76 5.12V40H90.58v-8.8c0-1.195-.31-2.155-.928-2.88-.598-.747-1.483-1.12-2.656-1.12-1.174 0-2.08.373-2.72 1.12-.619.725-.928 1.685-.928 2.88V40h-4.064Zm25.713.384c-1.6 0-3.03-.341-4.288-1.024a7.572 7.572 0 0 1-2.913-2.944c-.704-1.259-1.056-2.71-1.056-4.352 0-1.728.374-3.21 1.12-4.448.769-1.259 1.782-2.219 3.041-2.88 1.28-.661 2.688-.992 4.224-.992 1.6 0 3.029.352 4.288 1.056a7.583 7.583 0 0 1 2.976 2.88c.746 1.237 1.12 2.699 1.12 4.384 0 1.6-.363 3.03-1.088 4.288a7.907 7.907 0 0 1-3.008 2.976c-1.259.704-2.731 1.056-4.416 1.056Zm.064-3.552c.853 0 1.589-.213 2.208-.64a4.645 4.645 0 0 0 1.504-1.76 5.501 5.501 0 0 0 .544-2.432c0-1.003-.203-1.856-.608-2.56-.384-.704-.896-1.237-1.536-1.6a4.21 4.21 0 0 0-2.112-.544c-.832 0-1.568.203-2.208.608-.619.405-1.11.97-1.472 1.696-.342.704-.512 1.525-.512 2.464 0 .939.181 1.77.544 2.496.384.725.896 1.29 1.536 1.696.64.384 1.344.576 2.112.576Zm17.512 10.592c-1.451 0-2.752-.16-3.904-.48-1.152-.32-2.069-.843-2.752-1.568-.661-.704-.992-1.632-.992-2.784 0-.747.16-1.397.48-1.952.32-.533.811-1.003 1.472-1.408-.555-.32-.971-.725-1.248-1.216-.277-.49-.416-1.056-.416-1.696 0-1.408.661-2.496 1.984-3.264a5.352 5.352 0 0 1-1.088-1.664 5.295 5.295 0 0 1-.384-1.984c0-1.152.277-2.144.832-2.976.555-.853 1.323-1.515 2.304-1.984.981-.47 2.101-.704 3.36-.704.917 0 1.76.128 2.528.384h5.696V27.2h-2.208c.128.363.235.725.32 1.088.107.363.16.736.16 1.12 0 1.11-.288 2.09-.864 2.944-.576.853-1.355 1.525-2.336 2.016-.96.47-2.059.704-3.296.704a7.886 7.886 0 0 1-1.472-.128 6.081 6.081 0 0 1-1.312-.48c-.469.235-.704.608-.704 1.12 0 .939.779 1.408 2.336 1.408h2.912c1.28 0 2.368.181 3.264.544.917.341 1.611.885 2.08 1.632.469.747.704 1.696.704 2.848 0 1.11-.331 2.07-.992 2.88s-1.557 1.43-2.688 1.856c-1.131.448-2.389.672-3.776.672Zm0-3.2c1.024 0 1.888-.17 2.592-.512.725-.32 1.088-.81 1.088-1.472 0-1.259-.875-1.888-2.624-1.888h-2.304c-.853 0-1.515.16-1.984.48-.448.32-.672.79-.672 1.408 0 .49.181.875.544 1.152.363.299.843.512 1.44.64a9.15 9.15 0 0 0 1.92.192Zm-.384-12.352c.811 0 1.472-.224 1.984-.672.533-.47.8-1.067.8-1.792 0-.704-.267-1.29-.8-1.76-.512-.47-1.173-.704-1.984-.704-.811 0-1.472.235-1.984.704-.491.47-.736 1.056-.736 1.76 0 .725.235 1.323.704 1.792.491.448 1.163.672 2.016.672Zm17.526 8.512c-1.6 0-3.029-.341-4.288-1.024a7.576 7.576 0 0 1-2.912-2.944c-.704-1.259-1.056-2.71-1.056-4.352 0-1.728.374-3.21 1.12-4.448.768-1.259 1.782-2.219 3.04-2.88 1.28-.661 2.688-.992 4.224-.992 1.6 0 3.03.352 4.288 1.056a7.57 7.57 0 0 1 2.976 2.88c.747 1.237 1.12 2.699 1.12 4.384 0 1.6-.362 3.03-1.088 4.288a7.9 7.9 0 0 1-3.008 2.976c-1.258.704-2.73 1.056-4.416 1.056Zm.064-3.552c.854 0 1.59-.213 2.208-.64a4.636 4.636 0 0 0 1.504-1.76 5.487 5.487 0 0 0 .544-2.432c0-1.003-.202-1.856-.608-2.56-.384-.704-.896-1.237-1.536-1.6a4.21 4.21 0 0 0-2.112-.544c-.832 0-1.568.203-2.208.608-.618.405-1.109.97-1.472 1.696-.341.704-.512 1.525-.512 2.464 0 .939.182 1.77.544 2.496.384.725.896 1.29 1.536 1.696.64.384 1.344.576 2.112.576Z"/><path fill="#E27927" d="m50.323 29.942-4.446-2.1 4.34 2.816-.113 1.14-3.982-3.567c-.022.092.05.117.097.171.385.457.922.902 1.344 1.343.837.873 1.643 1.782 2.46 2.675.025.09-.144.932-.19 1.062-.019.053-.025.116-.095.124l-3.617-4.983 3.432 5.73.006.124-.408 1.182-1.816-4.121-1.8-3.598c.923 3.496 1.77 7.015 2.442 10.573-.01.117-.565 1.08-.672 1.235-.03.043.008.09-.108.063-.239-2.77-.668-5.52-1.09-8.265l-.376-1.993c.167 1.639.413 3.27.586 4.91.21 2.003.342 4.014.525 6.02l-1.013 1.429c-.04-.258.043-.509.05-.755.104-3.33-.06-6.799-.246-10.116a106.51 106.51 0 0 1-.098-2.003c-.002-.058.038-.182-.048-.17.01.61-.013 1.223-.003 1.834.05 2.72 0 5.437-.093 8.159-.191 1.235-.062 2.636-.25 3.855-.022.143-.429.571-.558.712-.236.257-.499.5-.758.732.77-4.857 1.242-9.767 1.517-14.679l-.051-.515a125.084 125.084 0 0 1-2.396 16.097l-1.636 1.295-.07-.07c1.713-5.58 2.99-11.295 3.948-17.06l-.042-.212c-1.259 6.17-3.067 12.213-5.203 18.126-.102.196-.86.581-1.1.708-.27.144-.57.297-.848.423-.133.06-.33.161-.472.162a127.262 127.262 0 0 0 6.255-15.39c.52-1.569 1.06-3.219 1.49-4.813.017-.065.128-.32.025-.341a119.946 119.946 0 0 1-14.76 22.35 16.23 16.23 0 0 1-4.103-.097l2.518-2.368c5.246-5.196 10.043-10.84 14.283-16.89l1.67-2.507c-.795.918-1.523 1.914-2.298 2.857A118.318 118.318 0 0 1 23.605 49.67c-.777-.14-1.586-.402-2.335-.675a20.578 20.578 0 0 1-2.369-1.051c9.494-5.435 18.291-12.101 25.998-19.86l-4.012 3.147c-7.707 5.83-16.042 10.843-24.867 14.81l-.194-.002c-1.497-1.108-2.814-2.436-4.009-3.86l.118-.076c10.505-3.086 20.623-7.4 30.212-12.641l3.144-1.816c-1.622.141-3.241.337-4.862.489a687.122 687.122 0 0 1-33.255 2.296c-.112-1.944-.03-3.913.37-5.817l9.037.492c9.47.651 18.935 1.408 28.368 2.442l-.136-.082a326.726 326.726 0 0 0-27.261-5.188L8.564 21.1c-.049-.067.343-.955.41-1.109.623-1.436 1.453-2.776 2.354-4.049l.062-.013c11.453 2.712 22.649 6.491 33.345 11.368l.213.055L42 25.586c-8.914-5.072-18.312-9.327-28.082-12.5-.025-.094.039-.093.082-.136 1.26-1.268 2.886-2.3 4.416-3.21l.095-.004a132.994 132.994 0 0 1 22.452 14.2l3.692 2.978c-7.038-7.085-15.043-13.175-23.554-18.393 1.2-.44 2.44-.814 3.704-1.036.174-.03.995-.175 1.082-.137a124.117 124.117 0 0 1 17.056 17.1c.59.72 1.138 1.488 1.76 2.174L43.18 24.31c-3.6-5.132-7.552-10.02-11.864-14.57-.805-.849-1.681-1.652-2.47-2.514-.019-.022-.111-.085-.048-.098 1.275.018 2.546.134 3.799.355l.113.082c4.731 6.157 8.972 12.708 12.484 19.642.087.012.047-.108.037-.159-.123-.641-.42-1.478-.61-2.125-1.523-5.138-3.4-10.176-5.535-15.084l.023-.072c.335.227.706.399 1.048.614.208.13.868.53.958.703 1.56 4.757 2.91 9.594 3.884 14.51.085.012.052-.115.048-.168-.014-.203-.077-.461-.112-.67-.522-3.104-1.216-6.26-1.972-9.313-.306-1.236-.709-2.463-.992-3.7-.005-.026-.014-.078.023-.07.48.427 1.04.789 1.445 1.29.83 4.403 1.496 8.845 1.854 13.317l.05-.465c-.125-1.708-.199-3.421-.344-5.128-.196-2.306-.523-4.593-.78-6.89-.005-.045-.025-.165.048-.097l1.025 1.223c.035.93.06 1.857.097 2.786.101 2.636.182 5.32.051 7.961-.008.17.004.342 0 .512l.097-.464c.181-3.373.306-6.752.295-10.136.178.256.642.721.743.99.06.162.045.378.04.55-.042 1.425-.244 3.062-.393 4.493-.166 1.59-.418 3.174-.586 4.764l.822-4.527.6-4.382c.045-.068.051-.106.116-.03.065.075.537.894.542.95-.617 2.999-1.394 5.96-2.178 8.917l1.606-3.207 1.571-3.534.37.877v.198l-3.107 5.13 3.323-4.569.22.611.065.404-3.608 3.846 3.74-3.224c.1-.015.058.013.077.067.095.26.096.616.194.888l-4.45 2.758 4.74-.488.048 1.123-4.349-.464 4.35 1.123v1.1l-.005-.004Z"/></svg>