<svg width="140" height="47" viewBox="0 0 140 47" fill="none" xmlns="http://www.w3.org/2000/svg">
<path d="M41.9384 24.5951L38.2856 22.8695L41.8516 25.1831L41.7585 26.1198L38.4872 23.19C38.4695 23.2656 38.5289 23.2856 38.5667 23.3307C38.8831 23.7058 39.3241 24.0713 39.6711 24.4336C40.3586 25.151 41.0204 25.8972 41.6911 26.6307C41.7119 26.7046 41.573 27.3963 41.5352 27.5031C41.5199 27.5465 41.5152 27.5988 41.4574 27.6052L38.4864 23.5122L41.3056 28.2189L41.3103 28.3202L40.9754 29.2913L39.4839 25.9061L38.0045 22.9507C38.7635 25.8226 39.4582 28.713 40.0108 31.6355C40.002 31.7318 39.5466 32.5231 39.459 32.65C39.435 32.6854 39.4655 32.7248 39.3699 32.7023C39.1739 30.4265 38.8213 28.1683 38.4744 25.9125L38.1659 24.2753C38.3033 25.6217 38.5057 26.9625 38.6471 28.3089C38.8197 29.9541 38.9282 31.6066 39.0783 33.2534L38.2463 34.4279C38.2142 34.2158 38.2816 34.0101 38.288 33.8077C38.3732 31.0716 38.239 28.2229 38.0856 25.498C38.0551 24.9501 38.0254 24.4007 38.0053 23.8528C38.0037 23.8046 38.0358 23.7033 37.9659 23.713C37.974 24.2143 37.9547 24.718 37.9635 25.2192C38.0037 27.4541 37.9635 29.6858 37.8864 31.9214C37.7298 32.9361 37.8358 34.0872 37.6816 35.0881C37.6631 35.2054 37.3291 35.5573 37.223 35.673C37.0295 35.8843 36.8134 36.0835 36.6005 36.2747C37.2334 32.2846 37.6206 28.2518 37.8462 24.2167L37.8045 23.7934C37.4415 28.2382 36.7733 32.6605 35.8368 37.0161L34.4922 38.0798L34.4344 38.0227C35.8423 33.4381 36.8913 28.7443 37.6784 24.0094L37.6438 23.8343C36.6094 28.9025 35.1243 33.8672 33.3694 38.7241C33.2859 38.8847 32.6626 39.2012 32.4658 39.3056C32.2442 39.4238 31.9976 39.5499 31.7695 39.6527C31.6602 39.7025 31.498 39.7853 31.3815 39.786C33.363 35.6947 35.0874 31.4652 36.5203 27.1448C36.9475 25.8555 37.3901 24.5003 37.7435 23.1909C37.7579 23.137 37.8487 22.9273 37.7643 22.9105C34.4312 29.4609 30.3422 35.628 25.6405 41.2698C24.5337 41.3887 23.3675 41.3565 22.2696 41.1903L24.3378 39.2446C28.6475 34.9765 32.5879 30.3397 36.0705 25.3711L37.4423 23.3114C36.7893 24.0657 36.191 24.8835 35.5548 25.6579C30.9591 31.2579 25.7152 36.3671 19.991 40.8015C19.3525 40.6858 18.6883 40.4713 18.073 40.2472C17.4064 40.0038 16.7558 39.7081 16.1269 39.3836C23.9258 34.9187 31.1519 29.4431 37.4824 23.0703L34.1871 25.6547C27.8564 30.4441 21.0094 34.562 13.7601 37.8211L13.601 37.8187C12.3713 36.9085 11.2895 35.8176 10.308 34.6487L10.4044 34.5853C19.0336 32.0508 27.3456 28.5073 35.2223 24.2015L37.8045 22.7105C36.4721 22.8261 35.142 22.9868 33.8104 23.1113C24.7241 23.9613 15.6097 24.5894 6.49375 24.9975C6.40219 23.4013 6.46965 21.7834 6.79815 20.2193L14.221 20.6234C22.0005 21.1585 29.7752 21.7802 37.5234 22.6293L37.4118 22.5619C30.0154 20.821 22.5419 19.4088 15.0186 18.301L7.63586 17.3329C7.5957 17.2776 7.91777 16.5481 7.97238 16.422C8.484 15.2427 9.16592 14.1413 9.90645 13.0962L9.95705 13.085C19.3654 15.3126 28.5616 18.4175 37.3475 22.4236L37.5226 22.4686L35.1011 21.017C27.7785 16.851 20.0592 13.3557 12.0332 10.7497C12.0131 10.6717 12.0654 10.6726 12.1007 10.6372C13.1368 9.59607 14.4717 8.74859 15.7286 8.00067L15.8065 7.99746C22.3267 11.2598 28.5127 15.1712 34.2497 19.6618L37.2825 22.1079C31.5005 16.2878 24.9257 11.2855 17.9341 6.99892C18.9196 6.63742 19.9388 6.33055 20.9765 6.14819C21.1195 6.12329 21.7941 6.0044 21.8656 6.03573C26.9778 10.2484 31.6772 14.9591 35.8761 20.0828C36.3604 20.6741 36.811 21.3047 37.3218 21.8678L36.0705 19.9687C33.1132 15.7536 29.8668 11.7378 26.3248 8.00067C25.6638 7.30339 24.9442 6.64385 24.2968 5.93532C24.2808 5.91764 24.2045 5.86542 24.2566 5.85498C25.304 5.86944 26.3481 5.96504 27.3769 6.14659L27.4701 6.21407C31.3566 11.2718 34.84 16.6525 37.725 22.349C37.7965 22.3586 37.7635 22.2598 37.7555 22.218C37.6543 21.6911 37.411 21.0042 37.2536 20.4724C36.003 16.2517 34.4617 12.1137 32.7076 8.08181L32.7269 8.02237C33.0016 8.20954 33.306 8.35011 33.5871 8.52689C33.7581 8.63449 34.3003 8.96307 34.3742 9.10444C35.656 13.0118 36.7644 16.9851 37.5651 21.0242C37.6342 21.0339 37.6078 20.9295 37.6045 20.8853C37.5925 20.719 37.5411 20.5069 37.5122 20.335C37.0833 17.7852 36.513 15.1929 35.8922 12.6849C35.6408 11.6703 35.3099 10.6621 35.0777 9.64667C35.0729 9.62424 35.0657 9.58161 35.0962 9.58802C35.4906 9.9391 35.9508 10.2364 36.2833 10.6485C36.9644 14.265 37.5122 17.9138 37.8061 21.5874L37.8479 21.205C37.7443 19.8024 37.684 18.395 37.5651 16.9932C37.4037 15.0989 37.1354 13.2199 36.9243 11.3329C36.9202 11.2959 36.9034 11.198 36.9636 11.2534L37.8053 12.2583C37.8342 13.0215 37.8551 13.7838 37.8848 14.5462C37.9684 16.712 38.035 18.9172 37.9274 21.0862C37.9202 21.2259 37.9306 21.3673 37.9274 21.5071L38.0069 21.1255C38.1555 18.3548 38.2583 15.5793 38.2487 12.7989C38.3956 13.0095 38.7763 13.3918 38.8591 13.6127C38.9088 13.7453 38.896 13.9228 38.892 14.065C38.8574 15.2347 38.692 16.5794 38.5691 17.7555C38.4326 19.0617 38.2262 20.3623 38.0881 21.6686L38.7635 17.9499L39.2566 14.3502C39.2928 14.2948 39.2984 14.2635 39.3514 14.3253C39.4044 14.3872 39.7924 15.0603 39.7964 15.1054C39.2896 17.5692 38.6518 20.0016 38.0077 22.4309L39.3265 19.7968L40.6172 16.8935L40.9216 17.6141V17.7764L38.3692 21.9899L41.0983 18.2375L41.279 18.7396L41.3328 19.0713L38.3692 22.2301L41.4404 19.5823C41.5232 19.5695 41.4887 19.5927 41.5048 19.6369C41.5826 19.8506 41.5834 20.143 41.6637 20.3663L38.0077 22.6317L41.9015 22.2308L41.9417 23.1539L38.3692 22.7723L41.9424 23.6954V24.5983L41.9384 24.5951Z" fill="white"/>
<path d="M97.8984 20.7808C100.025 17.2999 104.653 16.2953 108.012 18.648L108.013 18.6466V17.57H111.82V31.1759C111.82 31.5452 111.504 32.557 111.352 32.9335C109.338 37.945 101.394 38.2727 97.9913 34.5878C97.8163 34.3981 97.2659 33.8291 97.454 33.6192L100.075 31.8759C100.903 32.9408 102.158 33.6838 103.524 33.796C105.843 33.9856 108.236 33.1678 108.012 30.4229C107.977 30.3826 107.264 30.9011 107.151 30.9618C105.175 32.031 102.433 31.8571 100.493 30.7937C96.8848 28.8132 95.7553 24.2846 97.8984 20.7808ZM49.3974 17.6735C49.9091 10.7478 62.937 10.4662 63.9015 18.0443C63.9245 18.2268 63.9921 18.6004 63.8743 18.7183H59.7078L59.6116 18.5991C59.5326 16.1933 57.2158 15.5983 55.2038 16.084C53.3885 16.5224 52.8323 18.4426 54.4491 19.4514C57.2431 21.1948 63.1773 20.3583 64.2351 24.6756C65.8489 31.2608 57.8351 33.464 52.9717 31.554C50.5601 30.6069 49.1359 28.4768 49.0396 25.8986H53.3497C53.3268 26.8887 53.9289 27.9695 54.8314 28.4022C56.3677 29.1409 60.4135 28.931 60.0959 26.5137C59.9421 25.3439 58.5007 24.9615 57.532 24.6971C53.4604 23.5861 48.9878 23.221 49.3974 17.6735ZM87.0965 17.376C92.3776 16.8845 96.764 20.9245 95.6247 26.3312C94.3252 32.4952 86.0878 34.1523 82.1567 29.4499C78.4531 25.0177 81.3462 17.9106 87.0965 17.376ZM119.706 17.3762C125.264 16.8416 129.749 21.396 128.071 26.9593C125.987 33.8764 115.534 33.8664 113.453 26.9593C112.129 22.5644 115.089 17.8202 119.706 17.3762ZM69.5842 19.0058C72.9229 15.8743 78.4775 17.2683 79.1286 22.0656C79.5353 25.0578 78.9877 28.5602 79.212 31.6099L79.0999 31.8572H75.4005V23.7801C75.4004 23.4999 75.2753 22.9165 75.1877 22.6291C74.2679 19.6253 69.5827 20.7463 69.5827 23.852V31.8572H65.7756V12.8317H69.5842V19.0058ZM89.335 28.5157C93.6171 27.1546 92.4326 20.285 87.6699 20.821C82.3262 21.4217 83.7393 30.2948 89.335 28.5157ZM121.258 28.691C126.08 28.1563 125.532 20.2303 120.279 20.821C115.428 21.3671 115.912 29.2845 121.258 28.691ZM104.121 20.821C99.2201 20.9949 99.5093 28.6147 104.46 28.3433C109.521 28.0645 109.035 20.6471 104.121 20.821Z" fill="white"/>
</svg>
